<?xml version="1.0" encoding="UTF-8"?>
<svg id="_图层_1" data-name="图层 1" xmlns="http://www.w3.org/2000/svg" xmlns:xlink="http://www.w3.org/1999/xlink" viewBox="0 0 244.399 31.62">
  <defs>
    <style>
      .cls-1 {
        fill: url(#_未命名的渐变_509);
      }

      .cls-2 {
        fill: url(#_未命名的渐变_509-2);
      }

      .cls-3 {
        fill: url(#_未命名的渐变_509-3);
      }

      .cls-4 {
        fill: url(#_未命名的渐变_233);
      }

      .cls-5 {
        fill: url(#_未命名的渐变_734);
      }

      .cls-6 {
        fill: url(#_未命名的渐变_509-4);
      }

      .cls-7 {
        fill: url(#_未命名的渐变_515);
      }

      .cls-8 {
        fill: url(#_未命名的渐变_227);
      }
    </style>
    <linearGradient id="_未命名的渐变_227" data-name="未命名的渐变 227" x1="17.581" y1="20.841" x2="40.415" y2="20.841" gradientTransform="translate(19.019 -13.447) rotate(38.069)" gradientUnits="userSpaceOnUse">
      <stop offset="0" stop-color="#a764e8"/>
      <stop offset=".481" stop-color="#307fe2"/>
      <stop offset="1" stop-color="#55dad1"/>
    </linearGradient>
    <linearGradient id="_未命名的渐变_233" data-name="未命名的渐变 233" x1="41.741" y1="15.727" x2="48.745" y2="15.727" gradientUnits="userSpaceOnUse">
      <stop offset="0" stop-color="#a764e8"/>
      <stop offset=".008" stop-color="#3e7ce3"/>
      <stop offset=".481" stop-color="#307fe2"/>
      <stop offset="1" stop-color="#55dad1"/>
    </linearGradient>
    <linearGradient id="_未命名的渐变_509" data-name="未命名的渐变 509" x1="224.561" y1="21.023" x2="244.399" y2="21.023" gradientUnits="userSpaceOnUse">
      <stop offset="0" stop-color="#a564e8"/>
      <stop offset=".481" stop-color="#307fe2"/>
      <stop offset="1" stop-color="#55dad1"/>
    </linearGradient>
    <linearGradient id="_未命名的渐变_509-2" data-name="未命名的渐变 509" x1="201.123" y1="16.966" x2="221.428" y2="16.966" xlink:href="#_未命名的渐变_509"/>
    <linearGradient id="_未命名的渐变_509-3" data-name="未命名的渐变 509" x1="177.012" y1="19.809" x2="199.181" y2="19.809" xlink:href="#_未命名的渐变_509"/>
    <linearGradient id="_未命名的渐变_509-4" data-name="未命名的渐变 509" x1="149.009" y1="17.592" x2="174.747" y2="17.592" xlink:href="#_未命名的渐变_509"/>
    <linearGradient id="_未命名的渐变_515" data-name="未命名的渐变 515" x1="149.009" y1="16.966" x2="244.399" y2="16.966" gradientUnits="userSpaceOnUse">
      <stop offset="0" stop-color="#231815"/>
      <stop offset="1" stop-color="#000"/>
    </linearGradient>
    <linearGradient id="_未命名的渐变_734" data-name="未命名的渐变 734" x1="149.009" y1="16.966" x2="244.399" y2="16.966" gradientUnits="userSpaceOnUse">
      <stop offset=".005" stop-color="#55dad1"/>
      <stop offset=".265" stop-color="#67bfd6"/>
      <stop offset=".821" stop-color="#967be3"/>
      <stop offset="1" stop-color="#a764e8"/>
    </linearGradient>
  </defs>
  <g>
    <path d="M22.636,1.584v5.711h-7.754v23.553h-7.128V7.295H0V1.584h22.636Z"/>
    <path d="M72.261,9.984c1.626,1.765,2.439,4.189,2.439,7.274v13.59h-7.087v-12.631c0-1.556-.403-2.765-1.209-3.627-.806-.861-1.89-1.292-3.251-1.292s-2.446.431-3.252,1.292c-.806.862-1.209,2.07-1.209,3.627v12.631h-7.128V7.587h7.128v3.085c.722-1.028,1.695-1.841,2.918-2.439,1.223-.597,2.598-.896,4.127-.896,2.723,0,4.898.883,6.524,2.647Z"/>
    <path d="M92.208,30.848l-7.087-9.755v9.755h-7.128V0h7.128v17.05l7.045-9.463h8.796l-9.671,11.672,9.754,11.589h-8.837Z"/>
    <path d="M123.889,20.927h-16.133c.111,1.445.577,2.55,1.396,3.314.819.765,1.827,1.146,3.022,1.146,1.778,0,3.015-.75,3.71-2.251h7.587c-.389,1.529-1.091,2.904-2.105,4.127-1.015,1.223-2.286,2.182-3.814,2.876-1.529.695-3.238,1.042-5.127,1.042-2.279,0-4.308-.486-6.086-1.459-1.779-.972-3.168-2.362-4.169-4.169-1-1.806-1.501-3.919-1.501-6.336s.493-4.529,1.48-6.336c.986-1.806,2.369-3.195,4.148-4.169,1.778-.972,3.821-1.459,6.128-1.459,2.251,0,4.252.473,6.003,1.417,1.751.945,3.119,2.293,4.106,4.044.986,1.751,1.48,3.793,1.48,6.128,0,.667-.042,1.362-.125,2.084ZM116.719,16.966c0-1.223-.417-2.195-1.251-2.918-.834-.722-1.876-1.084-3.126-1.084-1.195,0-2.203.348-3.022,1.042-.82.695-1.327,1.682-1.522,2.96h8.921Z"/>
    <path d="M138.021,8.441c1.251-.736,2.64-1.105,4.169-1.105v7.545h-1.959c-1.779,0-3.113.382-4.002,1.146-.89.765-1.334,2.105-1.334,4.023v10.797h-7.128V7.587h7.128v3.877c.834-1.278,1.876-2.286,3.127-3.022Z"/>
    <rect class="cls-8" x="17.238" y="17.339" width="23.52" height="7.003" transform="translate(-6.682 22.314) rotate(-38.069)"/>
    <rect class="cls-4" x="41.741" y="12.225" width="7.003" height="7.003"/>
  </g>
  <g>
    <g>
      <path class="cls-1" d="M244.374,20.282c-.038-.692-.135-1.383-.301-2.053-.165-.647-.391-1.278-.677-1.88-.286-.594-.624-1.158-1.015-1.677-.383-.511-.819-.985-1.293-1.398-.481-.429-1.007-.797-1.564-1.113-.564-.323-1.158-.594-1.767-.797-.624-.203-1.256-.346-1.902-.429-.669-.083-1.353-.098-2.03-.06-.654.038-1.308.135-1.94.308-.624.158-1.233.383-1.812.669-.586.286-1.135.624-1.654,1.015-.504.391-.97.827-1.391,1.308-.429.489-.812,1.022-1.135,1.594-.331.579-.601,1.18-.812,1.819-.211.639-.353,1.308-.436,1.985-.09.714-.105,1.436-.06,2.158.038.692.135,1.383.308,2.053.165.654.398,1.278.692,1.88.286.601.639,1.165,1.038,1.699.391.511.827.985,1.301,1.406.489.421,1.015.797,1.571,1.113.564.323,1.158.594,1.767.797.624.203,1.256.346,1.902.429.669.083,1.353.098,2.03.06.654-.045,1.301-.143,1.94-.308.617-.158,1.225-.383,1.797-.669.579-.286,1.135-.624,1.647-1.015.496-.391.962-.827,1.376-1.308.429-.496.804-1.038,1.128-1.609l-3.353-1.18c-.195.331-.421.647-.677.94-.256.286-.534.549-.842.782-.301.233-.624.429-.962.594-.173.075-.346.15-.519.218-.188.06-.368.12-.556.165s-.376.083-.564.113c-.203.03-.406.053-.602.068-.406.023-.804.023-1.203-.015-.391-.038-.782-.105-1.158-.218-.188-.053-.376-.113-.556-.18-.173-.068-.346-.15-.511-.233-.165-.09-.331-.18-.496-.286-.158-.105-.308-.218-.451-.331-.15-.128-.293-.256-.429-.391s-.263-.271-.383-.421c-.248-.293-.466-.617-.654-.962-.195-.346-.353-.707-.481-1.09-.143-.406-.241-.827-.308-1.248h15.924c.008-.053.008-.098.015-.143.09-.714.105-1.444.06-2.158ZM228.315,19.854c.045-.421.12-.835.233-1.241.105-.391.241-.774.406-1.143.165-.353.361-.692.594-1.015.218-.308.474-.601.752-.857.143-.135.286-.256.444-.376.143-.113.301-.218.459-.316.165-.098.331-.188.504-.271.165-.083.338-.158.519-.218.18-.068.368-.12.556-.173.188-.045.376-.083.564-.113.398-.068.804-.098,1.203-.09.406,0,.804.03,1.195.105.383.06.752.165,1.113.301.346.135.684.308,1.007.511.158.098.308.211.451.323.15.12.301.248.436.383.271.271.519.564.744.88.218.323.414.662.571,1.023.083.18.158.368.218.556.128.368.233.744.301,1.128.038.203.068.406.09.601h-12.36Z"/>
      <path class="cls-2" d="M216.707,2.313v8.36c-1.436-1.068-3.248-1.436-4.691-1.571-1.451-.135-2.541-.03-3.744.271-1.188.316-2.489.827-3.571,1.827-1.09.992-1.962,2.474-2.549,3.895-.579,1.406-.872,2.759-.977,4.248-.12,1.496-.045,3.143.406,4.684.444,1.549,1.271,2.992,2.248,4.195.977,1.195,2.098,2.143,3.549,2.737,1.451.601,3.225.85,5.173.504,1.947-.353,4.067-1.308,5.105-2.541v2.271h3.774V2.313h-4.722ZM217.782,21.297c-.098,1.158-.398,2.383-1.022,3.458-.624,1.083-1.579,2.015-2.827,2.489-1.241.489-2.782.504-3.977.158-1.195-.331-2.053-1.03-2.707-1.819-.647-.789-1.09-1.677-1.323-3.037-.226-1.361-.241-3.203.105-4.729.353-1.526,1.075-2.737,1.865-3.594.774-.85,1.609-1.346,2.489-1.526.887-.188,1.819-.068,2.511.053.692.105,1.15.218,1.789.617.647.391,1.466,1.09,1.992,1.895.541.804.789,1.729.955,2.744.173,1.023.263,2.128.15,3.293Z"/>
      <path class="cls-3" d="M199.159,19.004c-.045-.752-.158-1.504-.346-2.24-.18-.699-.429-1.383-.752-2.037-.316-.647-.699-1.263-1.135-1.827-.429-.556-.91-1.068-1.444-1.526-.541-.459-1.128-.865-1.752-1.21-.624-.353-1.293-.647-1.977-.865-.684-.226-1.398-.376-2.12-.466-.752-.09-1.511-.113-2.263-.068-.737.045-1.466.15-2.173.331-.699.18-1.376.429-2.022.737-.654.308-1.271.677-1.849,1.105-.564.421-1.09.895-1.556,1.421-.481.534-.902,1.12-1.263,1.737-.368.624-.677,1.286-.91,1.977-.241.699-.398,1.429-.489,2.165-.098.782-.12,1.564-.068,2.346.045.759.15,1.511.346,2.241.18.707.444,1.391.767,2.045s.714,1.271,1.165,1.842c.429.564.917,1.075,1.451,1.534.549.466,1.135.872,1.759,1.218.632.353,1.293.639,1.977.865.692.226,1.398.376,2.12.466.752.09,1.511.105,2.263.06.737-.038,1.466-.15,2.173-.331.692-.173,1.368-.421,2.015-.729.647-.308,1.263-.677,1.834-1.105.556-.421,1.075-.902,1.541-1.429.474-.534.895-1.12,1.256-1.744.361-.632.669-1.293.895-1.985.241-.707.398-1.436.489-2.173.09-.782.113-1.571.068-2.353ZM192.573,24.688c-1.113,1.233-2.594,1.85-4.443,1.85-1.872,0-3.368-.609-4.481-1.834-1.113-1.225-1.662-2.857-1.662-4.91,0-2.068.549-3.714,1.662-4.925,1.113-1.21,2.609-1.819,4.481-1.819,1.85,0,3.331.617,4.443,1.834,1.113,1.225,1.669,2.864,1.669,4.909,0,2.03-.556,3.661-1.669,4.894Z"/>
      <path class="cls-6" d="M168.762,22.936h5.985c-.293.872-.677,1.722-1.165,2.504-.459.759-1.015,1.459-1.647,2.09-.669.669-1.421,1.263-2.233,1.752-.887.549-1.849.977-2.842,1.286-1.053.323-2.15.504-3.255.579-1.03.068-2.06.053-3.083-.068-.902-.105-1.789-.293-2.646-.571-.835-.263-1.639-.617-2.406-1.053-.744-.421-1.451-.91-2.098-1.474-.632-.556-1.21-1.18-1.714-1.857-.519-.699-.962-1.444-1.338-2.233-.376-.804-.669-1.647-.88-2.511-.218-.91-.346-1.842-.398-2.782-.06-.977-.038-1.955.075-2.932.105-.91.293-1.819.564-2.692.263-.85.617-1.669,1.045-2.443.549-1,1.233-1.932,2.037-2.744.797-.812,1.714-1.504,2.707-2.06,1.022-.579,2.12-1.015,3.255-1.293,1.21-.301,2.451-.436,3.699-.436,1.504,0,3,.188,4.428.624.669.211,1.323.466,1.947.782.617.316,1.21.684,1.767,1.09.962.714,1.819,1.571,2.519,2.541.722.985,1.271,2.098,1.662,3.248h-5.985c-.368-.662-.842-1.271-1.398-1.782-.579-.526-1.256-.955-1.985-1.256-.789-.331-1.639-.519-2.496-.571-.398-.023-.789-.023-1.18.008-.346.023-.692.068-1.03.128-.654.128-1.293.338-1.895.639-.586.293-1.135.677-1.632,1.12-.301.271-.579.571-.835.895-.429.541-.789,1.135-1.068,1.759-.293.662-.504,1.353-.639,2.06-.143.767-.21,1.549-.21,2.331s.068,1.564.21,2.323c.135.707.346,1.406.639,2.06.278.632.639,1.225,1.068,1.767.256.316.534.617.835.895.496.444,1.045.827,1.632,1.12.601.301,1.241.504,1.895.632.729.143,1.466.188,2.21.143.857-.06,1.707-.241,2.496-.571.383-.158.752-.353,1.098-.579.316-.203.609-.429.887-.677.556-.511,1.03-1.12,1.398-1.789Z"/>
    </g>
    <g>
      <path class="cls-7" d="M244.374,20.282c-.038-.692-.135-1.383-.301-2.053-.165-.647-.391-1.278-.677-1.88-.286-.594-.624-1.158-1.015-1.677-.383-.511-.819-.985-1.293-1.398-.481-.429-1.007-.797-1.564-1.113-.564-.323-1.158-.594-1.767-.797-.624-.203-1.256-.346-1.902-.429-.669-.083-1.353-.098-2.03-.06-.654.038-1.308.135-1.94.308-.624.158-1.233.383-1.812.669-.586.286-1.135.624-1.654,1.015-.504.391-.97.827-1.391,1.308-.429.489-.812,1.022-1.135,1.594-.331.579-.601,1.18-.812,1.819-.211.639-.353,1.308-.436,1.985-.09.714-.105,1.436-.06,2.158.038.692.135,1.383.308,2.053.165.654.398,1.278.692,1.88.286.601.639,1.165,1.038,1.699.391.511.827.985,1.301,1.406.489.421,1.015.797,1.571,1.113.564.323,1.158.594,1.767.797.624.203,1.256.346,1.902.429.669.083,1.353.098,2.03.06.654-.045,1.301-.143,1.94-.308.617-.158,1.225-.383,1.797-.669.579-.286,1.135-.624,1.647-1.015.496-.391.962-.827,1.376-1.308.429-.496.804-1.038,1.128-1.609l-3.353-1.18c-.195.331-.421.647-.677.94-.256.286-.534.549-.842.782-.301.233-.624.429-.962.594-.173.075-.346.15-.519.218-.188.06-.368.12-.556.165s-.376.083-.564.113c-.203.03-.406.053-.602.068-.406.023-.804.023-1.203-.015-.391-.038-.782-.105-1.158-.218-.188-.053-.376-.113-.556-.18-.173-.068-.346-.15-.511-.233-.165-.09-.331-.18-.496-.286-.158-.105-.308-.218-.451-.331-.15-.128-.293-.256-.429-.391s-.263-.271-.383-.421c-.248-.293-.466-.617-.654-.962-.195-.346-.353-.707-.481-1.09-.143-.406-.241-.827-.308-1.248h15.924c.008-.053.008-.098.015-.143.09-.714.105-1.444.06-2.158ZM228.315,19.854c.045-.421.12-.835.233-1.241.105-.391.241-.774.406-1.143.165-.353.361-.692.594-1.015.218-.308.474-.601.752-.857.143-.135.286-.256.444-.376.143-.113.301-.218.459-.316.165-.098.331-.188.504-.271.165-.083.338-.158.519-.218.18-.068.368-.12.556-.173.188-.045.376-.083.564-.113.398-.068.804-.098,1.203-.09.406,0,.804.03,1.195.105.383.06.752.165,1.113.301.346.135.684.308,1.007.511.158.098.308.211.451.323.15.12.301.248.436.383.271.271.519.564.744.88.218.323.414.662.571,1.023.083.18.158.368.218.556.128.368.233.744.301,1.128.038.203.068.406.09.601h-12.36Z"/>
      <path class="cls-7" d="M216.707,2.313v8.36c-1.436-1.068-3.248-1.436-4.691-1.571-1.451-.135-2.541-.03-3.744.271-1.188.316-2.489.827-3.571,1.827-1.09.992-1.962,2.474-2.549,3.895-.579,1.406-.872,2.759-.977,4.248-.12,1.496-.045,3.143.406,4.684.444,1.549,1.271,2.992,2.248,4.195.977,1.195,2.098,2.143,3.549,2.737,1.451.601,3.225.85,5.173.504,1.947-.353,4.067-1.308,5.105-2.541v2.271h3.774V2.313h-4.722ZM217.782,21.297c-.098,1.158-.398,2.383-1.022,3.458-.624,1.083-1.579,2.015-2.827,2.489-1.241.489-2.782.504-3.977.158-1.195-.331-2.053-1.03-2.707-1.819-.647-.789-1.09-1.677-1.323-3.037-.226-1.361-.241-3.203.105-4.729.353-1.526,1.075-2.737,1.865-3.594.774-.85,1.609-1.346,2.489-1.526.887-.188,1.819-.068,2.511.053.692.105,1.15.218,1.789.617.647.391,1.466,1.09,1.992,1.895.541.804.789,1.729.955,2.744.173,1.023.263,2.128.15,3.293Z"/>
      <path class="cls-7" d="M199.159,19.004c-.045-.752-.158-1.504-.346-2.24-.18-.699-.429-1.383-.752-2.037-.316-.647-.699-1.263-1.135-1.827-.429-.556-.91-1.068-1.444-1.526-.541-.459-1.128-.865-1.752-1.21-.624-.353-1.293-.647-1.977-.865-.684-.226-1.398-.376-2.12-.466-.752-.09-1.511-.113-2.263-.068-.737.045-1.466.15-2.173.331-.699.18-1.376.429-2.022.737-.654.308-1.271.677-1.849,1.105-.564.421-1.09.895-1.556,1.421-.481.534-.902,1.12-1.263,1.737-.368.624-.677,1.286-.91,1.977-.241.699-.398,1.429-.489,2.165-.098.782-.12,1.564-.068,2.346.045.759.15,1.511.346,2.241.18.707.444,1.391.767,2.045s.714,1.271,1.165,1.842c.429.564.917,1.075,1.451,1.534.549.466,1.135.872,1.759,1.218.632.353,1.293.639,1.977.865.692.226,1.398.376,2.12.466.752.09,1.511.105,2.263.06.737-.038,1.466-.15,2.173-.331.692-.173,1.368-.421,2.015-.729.647-.308,1.263-.677,1.834-1.105.556-.421,1.075-.902,1.541-1.429.474-.534.895-1.12,1.256-1.744.361-.632.669-1.293.895-1.985.241-.707.398-1.436.489-2.173.09-.782.113-1.571.068-2.353ZM192.573,24.688c-1.113,1.233-2.594,1.85-4.443,1.85-1.872,0-3.368-.609-4.481-1.834-1.113-1.225-1.662-2.857-1.662-4.91,0-2.068.549-3.714,1.662-4.925,1.113-1.21,2.609-1.819,4.481-1.819,1.85,0,3.331.617,4.443,1.834,1.113,1.225,1.669,2.864,1.669,4.909,0,2.03-.556,3.661-1.669,4.894Z"/>
      <path class="cls-7" d="M168.762,22.936h5.985c-.293.872-.677,1.722-1.165,2.504-.459.759-1.015,1.459-1.647,2.09-.669.669-1.421,1.263-2.233,1.752-.887.549-1.849.977-2.842,1.286-1.053.323-2.15.504-3.255.579-1.03.068-2.06.053-3.083-.068-.902-.105-1.789-.293-2.646-.571-.835-.263-1.639-.617-2.406-1.053-.744-.421-1.451-.91-2.098-1.474-.632-.556-1.21-1.18-1.714-1.857-.519-.699-.962-1.444-1.338-2.233-.376-.804-.669-1.647-.88-2.511-.218-.91-.346-1.842-.398-2.782-.06-.977-.038-1.955.075-2.932.105-.91.293-1.819.564-2.692.263-.85.617-1.669,1.045-2.443.549-1,1.233-1.932,2.037-2.744.797-.812,1.714-1.504,2.707-2.06,1.022-.579,2.12-1.015,3.255-1.293,1.21-.301,2.451-.436,3.699-.436,1.504,0,3,.188,4.428.624.669.211,1.323.466,1.947.782.617.316,1.21.684,1.767,1.09.962.714,1.819,1.571,2.519,2.541.722.985,1.271,2.098,1.662,3.248h-5.985c-.368-.662-.842-1.271-1.398-1.782-.579-.526-1.256-.955-1.985-1.256-.789-.331-1.639-.519-2.496-.571-.398-.023-.789-.023-1.18.008-.346.023-.692.068-1.03.128-.654.128-1.293.338-1.895.639-.586.293-1.135.677-1.632,1.12-.301.271-.579.571-.835.895-.429.541-.789,1.135-1.068,1.759-.293.662-.504,1.353-.639,2.06-.143.767-.21,1.549-.21,2.331s.068,1.564.21,2.323c.135.707.346,1.406.639,2.06.278.632.639,1.225,1.068,1.767.256.316.534.617.835.895.496.444,1.045.827,1.632,1.12.601.301,1.241.504,1.895.632.729.143,1.466.188,2.21.143.857-.06,1.707-.241,2.496-.571.383-.158.752-.353,1.098-.579.316-.203.609-.429.887-.677.556-.511,1.03-1.12,1.398-1.789Z"/>
    </g>
    <g>
      <path class="cls-5" d="M244.374,20.282c-.038-.692-.135-1.383-.301-2.053-.165-.647-.391-1.278-.677-1.88-.286-.594-.624-1.158-1.015-1.677-.383-.511-.819-.985-1.293-1.398-.481-.429-1.007-.797-1.564-1.113-.564-.323-1.158-.594-1.767-.797-.624-.203-1.256-.346-1.902-.429-.669-.083-1.353-.098-2.03-.06-.654.038-1.308.135-1.94.308-.624.158-1.233.383-1.812.669-.586.286-1.135.624-1.654,1.015-.504.391-.97.827-1.391,1.308-.429.489-.812,1.022-1.135,1.594-.331.579-.601,1.18-.812,1.819-.211.639-.353,1.308-.436,1.985-.09.714-.105,1.436-.06,2.158.038.692.135,1.383.308,2.053.165.654.398,1.278.692,1.88.286.601.639,1.165,1.038,1.699.391.511.827.985,1.301,1.406.489.421,1.015.797,1.571,1.113.564.323,1.158.594,1.767.797.624.203,1.256.346,1.902.429.669.083,1.353.098,2.03.06.654-.045,1.301-.143,1.94-.308.617-.158,1.225-.383,1.797-.669.579-.286,1.135-.624,1.647-1.015.496-.391.962-.827,1.376-1.308.429-.496.804-1.038,1.128-1.609l-3.353-1.18c-.195.331-.421.647-.677.94-.256.286-.534.549-.842.782-.301.233-.624.429-.962.594-.173.075-.346.15-.519.218-.188.06-.368.12-.556.165s-.376.083-.564.113c-.203.03-.406.053-.602.068-.406.023-.804.023-1.203-.015-.391-.038-.782-.105-1.158-.218-.188-.053-.376-.113-.556-.18-.173-.068-.346-.15-.511-.233-.165-.09-.331-.18-.496-.286-.158-.105-.308-.218-.451-.331-.15-.128-.293-.256-.429-.391s-.263-.271-.383-.421c-.248-.293-.466-.617-.654-.962-.195-.346-.353-.707-.481-1.09-.143-.406-.241-.827-.308-1.248h15.924c.008-.053.008-.098.015-.143.09-.714.105-1.444.06-2.158ZM228.315,19.854c.045-.421.12-.835.233-1.241.105-.391.241-.774.406-1.143.165-.353.361-.692.594-1.015.218-.308.474-.601.752-.857.143-.135.286-.256.444-.376.143-.113.301-.218.459-.316.165-.098.331-.188.504-.271.165-.083.338-.158.519-.218.18-.068.368-.12.556-.173.188-.045.376-.083.564-.113.398-.068.804-.098,1.203-.09.406,0,.804.03,1.195.105.383.06.752.165,1.113.301.346.135.684.308,1.007.511.158.098.308.211.451.323.15.12.301.248.436.383.271.271.519.564.744.88.218.323.414.662.571,1.023.083.18.158.368.218.556.128.368.233.744.301,1.128.038.203.068.406.09.601h-12.36Z"/>
      <path class="cls-5" d="M216.707,2.313v8.36c-1.436-1.068-3.248-1.436-4.691-1.571-1.451-.135-2.541-.03-3.744.271-1.188.316-2.489.827-3.571,1.827-1.09.992-1.962,2.474-2.549,3.895-.579,1.406-.872,2.759-.977,4.248-.12,1.496-.045,3.143.406,4.684.444,1.549,1.271,2.992,2.248,4.195.977,1.195,2.098,2.143,3.549,2.737,1.451.601,3.225.85,5.173.504,1.947-.353,4.067-1.308,5.105-2.541v2.271h3.774V2.313h-4.722ZM217.782,21.297c-.098,1.158-.398,2.383-1.022,3.458-.624,1.083-1.579,2.015-2.827,2.489-1.241.489-2.782.504-3.977.158-1.195-.331-2.053-1.03-2.707-1.819-.647-.789-1.09-1.677-1.323-3.037-.226-1.361-.241-3.203.105-4.729.353-1.526,1.075-2.737,1.865-3.594.774-.85,1.609-1.346,2.489-1.526.887-.188,1.819-.068,2.511.053.692.105,1.15.218,1.789.617.647.391,1.466,1.09,1.992,1.895.541.804.789,1.729.955,2.744.173,1.023.263,2.128.15,3.293Z"/>
      <path class="cls-5" d="M199.159,19.004c-.045-.752-.158-1.504-.346-2.24-.18-.699-.429-1.383-.752-2.037-.316-.647-.699-1.263-1.135-1.827-.429-.556-.91-1.068-1.444-1.526-.541-.459-1.128-.865-1.752-1.21-.624-.353-1.293-.647-1.977-.865-.684-.226-1.398-.376-2.12-.466-.752-.09-1.511-.113-2.263-.068-.737.045-1.466.15-2.173.331-.699.18-1.376.429-2.022.737-.654.308-1.271.677-1.849,1.105-.564.421-1.09.895-1.556,1.421-.481.534-.902,1.12-1.263,1.737-.368.624-.677,1.286-.91,1.977-.241.699-.398,1.429-.489,2.165-.098.782-.12,1.564-.068,2.346.045.759.15,1.511.346,2.241.18.707.444,1.391.767,2.045s.714,1.271,1.165,1.842c.429.564.917,1.075,1.451,1.534.549.466,1.135.872,1.759,1.218.632.353,1.293.639,1.977.865.692.226,1.398.376,2.12.466.752.09,1.511.105,2.263.06.737-.038,1.466-.15,2.173-.331.692-.173,1.368-.421,2.015-.729.647-.308,1.263-.677,1.834-1.105.556-.421,1.075-.902,1.541-1.429.474-.534.895-1.12,1.256-1.744.361-.632.669-1.293.895-1.985.241-.707.398-1.436.489-2.173.09-.782.113-1.571.068-2.353ZM192.573,24.688c-1.113,1.233-2.594,1.85-4.443,1.85-1.872,0-3.368-.609-4.481-1.834-1.113-1.225-1.662-2.857-1.662-4.91,0-2.068.549-3.714,1.662-4.925,1.113-1.21,2.609-1.819,4.481-1.819,1.85,0,3.331.617,4.443,1.834,1.113,1.225,1.669,2.864,1.669,4.909,0,2.03-.556,3.661-1.669,4.894Z"/>
      <path class="cls-5" d="M168.762,22.936h5.985c-.293.872-.677,1.722-1.165,2.504-.459.759-1.015,1.459-1.647,2.09-.669.669-1.421,1.263-2.233,1.752-.887.549-1.849.977-2.842,1.286-1.053.323-2.15.504-3.255.579-1.03.068-2.06.053-3.083-.068-.902-.105-1.789-.293-2.646-.571-.835-.263-1.639-.617-2.406-1.053-.744-.421-1.451-.91-2.098-1.474-.632-.556-1.21-1.18-1.714-1.857-.519-.699-.962-1.444-1.338-2.233-.376-.804-.669-1.647-.88-2.511-.218-.91-.346-1.842-.398-2.782-.06-.977-.038-1.955.075-2.932.105-.91.293-1.819.564-2.692.263-.85.617-1.669,1.045-2.443.549-1,1.233-1.932,2.037-2.744.797-.812,1.714-1.504,2.707-2.06,1.022-.579,2.12-1.015,3.255-1.293,1.21-.301,2.451-.436,3.699-.436,1.504,0,3,.188,4.428.624.669.211,1.323.466,1.947.782.617.316,1.21.684,1.767,1.09.962.714,1.819,1.571,2.519,2.541.722.985,1.271,2.098,1.662,3.248h-5.985c-.368-.662-.842-1.271-1.398-1.782-.579-.526-1.256-.955-1.985-1.256-.789-.331-1.639-.519-2.496-.571-.398-.023-.789-.023-1.18.008-.346.023-.692.068-1.03.128-.654.128-1.293.338-1.895.639-.586.293-1.135.677-1.632,1.12-.301.271-.579.571-.835.895-.429.541-.789,1.135-1.068,1.759-.293.662-.504,1.353-.639,2.06-.143.767-.21,1.549-.21,2.331s.068,1.564.21,2.323c.135.707.346,1.406.639,2.06.278.632.639,1.225,1.068,1.767.256.316.534.617.835.895.496.444,1.045.827,1.632,1.12.601.301,1.241.504,1.895.632.729.143,1.466.188,2.21.143.857-.06,1.707-.241,2.496-.571.383-.158.752-.353,1.098-.579.316-.203.609-.429.887-.677.556-.511,1.03-1.12,1.398-1.789Z"/>
    </g>
  </g>
</svg>