<?xml version="1.0" encoding="UTF-8"?>
<svg id="_图层_1" data-name="图层 1" xmlns="http://www.w3.org/2000/svg" viewBox="0 0 247.793 248.356">
  <defs>
    <style>
      .cls-1 {
        fill: #fff;
      }
    </style>
  </defs>
  <path class="cls-1" d="M161.706,80.828c.894.232,1.815.347,2.739.342,5.102-.007,9.549-3.473,10.802-8.419l6.364-25.24c1.505-5.97-2.114-12.028-8.084-13.534-5.969-1.505-12.029,2.114-13.534,8.083l-6.363,25.242c-.726,2.865-.282,5.9,1.233,8.438,1.515,2.538,3.977,4.368,6.843,5.089h0ZM125.907,101.175l3.395,1.426c2.14-1.798,4.423-3.282,6.478-5.322,1.684-1.726,2.055-4.78,4.381-6.221,1.664-.946,3.471-1.617,5.351-1.982,1.325-.319,2.589-.854,3.739-1.585.703-.541,1.375-1.121,2.012-1.741l-1.698-.727-14.041-6.079c2.463-11.191,1.524-22.864-2.697-33.516-5.591-14.171-16.594-25.533-30.578-31.576l-21.06-9.118C52.079-7.857,18.273,5.532,5.68,34.641l-.927,2.14c-6.079,13.999-6.336,29.842-.714,44.031,5.622,14.189,16.66,25.557,30.677,31.593l20.903,9.045c25.259,10.985,54.759,2.475,70.288-20.275h0ZM112.565,68.986l-23.9-10.346c-6.142-2.659-13.278.165-15.938,6.308-2.659,6.143.165,13.278,6.307,15.938l23.9,10.345c-9.576,10.391-24.674,13.59-37.641,7.976l-21.088-9.118c-16.82-7.302-24.542-26.851-17.251-43.676l.927-2.183c7.302-16.827,26.863-24.551,43.69-17.251l21.047,9.118c12.959,5.614,20.959,18.802,19.947,32.889h0ZM247.389,181.606c-1.946-15.114-9.826-28.831-21.903-38.125l-18.163-14.011c-21.785-16.807-52.426-15.807-73.07,2.383l-2.425-1.87c-.775.434-1.569.83-2.383,1.184-1.299.424-2.659.631-4.024.613-1.924-.102-3.854.115-5.707.643-2.611.827-3.724,3.695-5.793,4.951-2.497,1.427-5.065,2.354-7.591,3.568l1.613,1.241,11.501,8.861c-12.385,24.605-5.56,54.537,16.266,71.343l18.179,13.997c12.061,9.315,27.332,13.452,42.447,11.499,15.113-1.954,28.831-9.839,38.127-21.915l1.427-1.855c9.294-12.071,13.402-27.345,11.414-42.449l.086-.058ZM216.712,209.259l-1.427,1.855c-11.202,14.527-32.059,17.223-46.587,6.022l-18.164-14.012c-11.191-8.62-15.702-23.379-11.243-36.783l16.067,12.385c5.298,4.086,12.907,3.102,16.993-2.198,4.086-5.299,3.103-12.907-2.197-16.993l-16.081-12.385c11.852-7.758,27.319-7.152,38.525,1.512l18.092,13.997c6.98,5.38,11.536,13.314,12.666,22.053,1.13,8.74-1.261,17.571-6.644,24.548h0ZM193.697,107.81c2.042.005,4.047-.553,5.792-1.612l11.172-6.806c5.261-3.2,6.931-10.058,3.732-15.317-3.2-5.261-10.058-6.931-15.317-3.732l-11.173,6.792c-4.28,2.592-6.308,7.72-4.957,12.538,1.35,4.819,5.746,8.147,10.751,8.137h0ZM193.697,107.81"/>
</svg>