<?xml version="1.0" encoding="UTF-8"?>
<svg id="_默认值" data-name="默认值" xmlns="http://www.w3.org/2000/svg" xmlns:xlink="http://www.w3.org/1999/xlink" viewBox="0 0 415 56">
  <defs>
    <style>
      .cls-1 {
        fill: url(#_未命名的渐变_509);
      }

      .cls-2 {
        fill: #fff;
      }

      .cls-3 {
        fill: url(#_未命名的渐变_509-2);
      }

      .cls-4 {
        fill: url(#_未命名的渐变_509-3);
      }

      .cls-5 {
        fill: none;
      }

      .cls-5, .cls-6, .cls-7, .cls-8 {
        stroke: #fff;
        stroke-miterlimit: 10;
        stroke-width: .992px;
      }

      .cls-9 {
        fill: url(#_未命名的渐变_509-4);
      }

      .cls-6 {
        fill: url(#_未命名的渐变_227);
      }

      .cls-10 {
        fill: url(#_未命名的渐变_515);
      }

      .cls-11 {
        fill: url(#_未命名的渐变_732);
      }

      .cls-8 {
        fill: url(#_未命名的渐变_233);
      }
    </style>
    <linearGradient id="_未命名的渐变_227" data-name="未命名的渐变 227" x1="29.925" y1="35.382" x2="68.148" y2="35.382" gradientTransform="translate(32.248 -22.71) rotate(38.069)" gradientUnits="userSpaceOnUse">
      <stop offset="0" stop-color="#a764e8"/>
      <stop offset=".481" stop-color="#307fe2"/>
      <stop offset="1" stop-color="#55dad1"/>
    </linearGradient>
    <linearGradient id="_未命名的渐变_233" data-name="未命名的渐变 233" x1="70.368" y1="26.821" x2="82.091" y2="26.821" gradientUnits="userSpaceOnUse">
      <stop offset="0" stop-color="#a764e8"/>
      <stop offset=".008" stop-color="#3e7ce3"/>
      <stop offset=".481" stop-color="#307fe2"/>
      <stop offset="1" stop-color="#55dad1"/>
    </linearGradient>
    <linearGradient id="_未命名的渐变_509" data-name="未命名的渐变 509" x1="376.396" y1="35.687" x2="409.603" y2="35.687" gradientUnits="userSpaceOnUse">
      <stop offset="0" stop-color="#a564e8"/>
      <stop offset=".481" stop-color="#307fe2"/>
      <stop offset="1" stop-color="#55dad1"/>
    </linearGradient>
    <linearGradient id="_未命名的渐变_509-2" data-name="未命名的渐变 509" x1="337.161" y1="28.897" x2="371.151" y2="28.897" xlink:href="#_未命名的渐变_509"/>
    <linearGradient id="_未命名的渐变_509-3" data-name="未命名的渐变 509" x1="296.802" y1="33.656" x2="333.912" y2="33.656" xlink:href="#_未命名的渐变_509"/>
    <linearGradient id="_未命名的渐变_509-4" data-name="未命名的渐变 509" x1="249.926" y1="29.943" x2="293.01" y2="29.943" xlink:href="#_未命名的渐变_509"/>
    <linearGradient id="_未命名的渐变_515" data-name="未命名的渐变 515" x1="248.883" y1="138.535" x2="408.559" y2="138.535" gradientTransform="translate(1.043 -109.638)" gradientUnits="userSpaceOnUse">
      <stop offset="0" stop-color="#231815"/>
      <stop offset="1" stop-color="#000"/>
    </linearGradient>
    <linearGradient id="_未命名的渐变_732" data-name="未命名的渐变 732" x1="248.883" y1="138.535" x2="408.559" y2="138.535" gradientTransform="translate(1.043 -109.638)" gradientUnits="userSpaceOnUse">
      <stop offset=".005" stop-color="#55dad1"/>
      <stop offset=".265" stop-color="#67bfd6"/>
      <stop offset=".821" stop-color="#967be3"/>
      <stop offset="1" stop-color="#a764e8"/>
    </linearGradient>
  </defs>

  <g>
    <g>
      <path class="cls-7" d="M38.387,3.148v9.56h-12.979v39.426h-11.932V12.707H.496V3.148h37.89Z"/>
      <path class="cls-7" d="M121.456,17.208c2.721,2.955,4.082,7.013,4.082,12.177v22.748h-11.863v-21.143c0-2.605-.675-4.628-2.024-6.071-1.35-1.441-3.164-2.163-5.443-2.163s-4.094.722-5.443,2.163c-1.35,1.442-2.024,3.466-2.024,6.071v21.143h-11.932V13.196h11.932v5.164c1.209-1.721,2.837-3.081,4.885-4.082,2.047-1,4.349-1.5,6.908-1.5,4.559,0,8.199,1.477,10.921,4.431Z"/>
      <path class="cls-7" d="M154.845,52.133l-11.863-16.329v16.329h-11.932V.496h11.932v28.54l11.793-15.84h14.724l-16.189,19.538,16.328,19.399h-14.793Z"/>
      <path class="cls-7" d="M207.878,35.526h-27.005c.185,2.419.965,4.268,2.338,5.547,1.372,1.28,3.058,1.919,5.059,1.919,2.977,0,5.047-1.256,6.21-3.768h12.7c-.652,2.559-1.826,4.862-3.524,6.908-1.699,2.048-3.827,3.653-6.385,4.815-2.559,1.163-5.42,1.745-8.583,1.745-3.815,0-7.211-.814-10.188-2.442-2.978-1.628-5.303-3.953-6.978-6.978-1.675-3.023-2.512-6.559-2.512-10.607s.826-7.582,2.477-10.607c1.651-3.023,3.966-5.349,6.943-6.978,2.977-1.628,6.396-2.442,10.258-2.442,3.768,0,7.118.791,10.048,2.372,2.931,1.582,5.221,3.838,6.873,6.769,1.651,2.931,2.477,6.35,2.477,10.258,0,1.117-.07,2.28-.209,3.489ZM195.876,28.897c0-2.047-.698-3.674-2.093-4.885-1.396-1.209-3.14-1.814-5.233-1.814-2.001,0-3.687.582-5.059,1.744-1.373,1.163-2.222,2.815-2.547,4.955h14.933Z"/>
      <path class="cls-7" d="M231.533,14.626c2.093-1.232,4.419-1.849,6.978-1.849v12.63h-3.28c-2.978,0-5.21.64-6.699,1.919-1.489,1.28-2.233,3.524-2.233,6.734v18.073h-11.932V13.196h11.932v6.489c1.396-2.139,3.14-3.826,5.234-5.059Z"/>
      <rect class="cls-6" x="29.351" y="29.52" width="39.37" height="11.723" transform="translate(-11.385 37.763) rotate(-38.069)"/>
      <rect class="cls-8" x="70.368" y="20.96" width="11.723" height="11.723"/>
    </g>
    <g>
      <g>
        <path class="cls-1" d="M409.562,34.447c-.063-1.158-.227-2.316-.503-3.436-.277-1.082-.654-2.139-1.133-3.146-.478-.994-1.045-1.938-1.699-2.806-.642-.856-1.372-1.649-2.165-2.341-.805-.717-1.686-1.334-2.618-1.863-.944-.541-1.938-.994-2.958-1.334-1.045-.34-2.102-.579-3.184-.717-1.12-.138-2.265-.164-3.398-.101-1.095.063-2.19.227-3.247.516-1.045.264-2.064.642-3.033,1.12-.982.478-1.9,1.045-2.769,1.699-.843.654-1.624,1.384-2.328,2.19-.717.818-1.359,1.712-1.9,2.668-.554.969-1.007,1.976-1.359,3.046-.352,1.07-.592,2.19-.73,3.323-.151,1.196-.176,2.404-.101,3.612.063,1.158.227,2.316.516,3.436.277,1.095.667,2.14,1.158,3.146.478,1.007,1.07,1.951,1.737,2.844.654.856,1.384,1.649,2.177,2.353.818.705,1.699,1.334,2.63,1.863.944.541,1.938.994,2.958,1.334,1.045.34,2.102.579,3.184.717,1.12.138,2.265.164,3.398.101,1.095-.076,2.177-.239,3.247-.516,1.032-.264,2.051-.642,3.008-1.12.969-.478,1.9-1.045,2.756-1.699.831-.654,1.611-1.384,2.303-2.19.717-.831,1.347-1.737,1.888-2.693l-5.613-1.976c-.327.554-.705,1.082-1.133,1.573-.428.478-.894.919-1.41,1.309-.503.39-1.045.717-1.611.994-.29.126-.579.252-.868.365-.315.101-.617.201-.931.277s-.629.138-.944.189c-.34.05-.68.088-1.007.113-.68.038-1.347.038-2.014-.025-.654-.063-1.309-.176-1.938-.365-.315-.088-.629-.189-.931-.302-.29-.113-.579-.252-.856-.39-.277-.151-.554-.302-.831-.478-.264-.176-.516-.365-.755-.554-.252-.214-.491-.428-.717-.654s-.441-.453-.642-.705c-.415-.491-.78-1.032-1.095-1.611-.327-.579-.592-1.183-.805-1.825-.239-.68-.403-1.384-.516-2.089h26.656c.013-.088.013-.164.025-.239.151-1.196.176-2.416.101-3.612ZM382.68,33.73c.076-.705.201-1.397.39-2.077.176-.654.403-1.296.68-1.913.277-.592.604-1.158.994-1.699.365-.516.793-1.007,1.259-1.435.239-.227.478-.428.742-.629.239-.189.503-.365.768-.529.277-.164.554-.315.843-.453.277-.138.566-.264.868-.365.302-.113.617-.201.931-.29.315-.076.629-.138.944-.189.667-.113,1.347-.164,2.014-.151.68,0,1.347.05,2.001.176.642.101,1.259.277,1.863.503.579.227,1.145.516,1.686.856.264.164.516.352.755.541.252.201.503.415.73.642.453.453.868.944,1.246,1.472.365.541.692,1.108.956,1.712.138.302.264.617.365.931.214.617.39,1.246.503,1.888.063.34.113.68.151,1.007h-20.69Z"/>
        <path class="cls-3" d="M363.248,4.368v13.995c-2.404-1.787-5.437-2.404-7.853-2.63-2.429-.227-4.254-.05-6.268.453-1.988.529-4.166,1.384-5.978,3.058-1.825,1.661-3.285,4.141-4.266,6.519-.969,2.353-1.46,4.619-1.636,7.111-.201,2.504-.076,5.261.68,7.841.742,2.593,2.127,5.009,3.763,7.023,1.636,2.001,3.511,3.587,5.94,4.581,2.429,1.007,5.399,1.422,8.659.843,3.26-.592,6.809-2.19,8.545-4.254v3.801h6.318V4.368h-7.903ZM365.048,36.146c-.164,1.938-.667,3.989-1.712,5.789-1.045,1.812-2.643,3.373-4.732,4.166-2.077.818-4.657.843-6.658.264-2.001-.554-3.436-1.724-4.531-3.046-1.082-1.321-1.825-2.806-2.215-5.084-.378-2.278-.403-5.361.176-7.916.592-2.555,1.8-4.581,3.121-6.016,1.296-1.422,2.693-2.253,4.166-2.555,1.485-.315,3.046-.113,4.204.088,1.158.176,1.926.365,2.995,1.032,1.082.654,2.454,1.825,3.335,3.172.906,1.347,1.321,2.895,1.598,4.594.29,1.712.441,3.562.252,5.512Z"/>
        <path class="cls-4" d="M333.874,32.307c-.076-1.259-.264-2.517-.579-3.75-.302-1.17-.717-2.316-1.259-3.411-.529-1.082-1.17-2.114-1.9-3.058-.717-.931-1.523-1.787-2.416-2.555-.906-.768-1.888-1.447-2.932-2.026-1.045-.591-2.165-1.082-3.31-1.447-1.145-.378-2.341-.629-3.549-.78-1.259-.151-2.53-.189-3.788-.113-1.233.076-2.454.252-3.637.554-1.17.302-2.303.717-3.385,1.233-1.095.516-2.127,1.133-3.096,1.85-.944.705-1.825,1.498-2.605,2.379-.805.894-1.51,1.875-2.114,2.907-.617,1.045-1.133,2.152-1.523,3.31-.403,1.17-.667,2.391-.818,3.625-.164,1.309-.201,2.618-.113,3.927.076,1.271.252,2.53.579,3.75.302,1.183.742,2.328,1.284,3.423s1.196,2.127,1.951,3.083c.717.944,1.535,1.8,2.429,2.567.919.78,1.9,1.46,2.945,2.039,1.057.592,2.165,1.07,3.31,1.447,1.158.378,2.341.629,3.549.78,1.259.151,2.53.176,3.788.101,1.233-.063,2.454-.252,3.637-.554,1.158-.289,2.291-.705,3.373-1.221,1.082-.516,2.114-1.133,3.071-1.85.931-.705,1.8-1.51,2.58-2.391.793-.894,1.498-1.875,2.102-2.92.604-1.057,1.12-2.165,1.498-3.322.403-1.183.667-2.404.818-3.637.151-1.309.189-2.63.113-3.939ZM322.849,41.822c-1.863,2.064-4.342,3.096-7.438,3.096-3.134,0-5.638-1.019-7.501-3.071-1.863-2.051-2.781-4.782-2.781-8.218,0-3.461.919-6.217,2.781-8.243,1.863-2.026,4.367-3.046,7.501-3.046,3.096,0,5.575,1.032,7.438,3.071,1.863,2.051,2.794,4.795,2.794,8.218,0,3.398-.931,6.129-2.794,8.193Z"/>
        <path class="cls-9" d="M282.992,38.889h10.018c-.491,1.46-1.133,2.882-1.951,4.191-.768,1.271-1.699,2.442-2.756,3.499-1.12,1.12-2.379,2.114-3.738,2.932-1.485.919-3.096,1.636-4.757,2.152-1.762.541-3.599.843-5.449.969-1.724.113-3.448.088-5.16-.113-1.51-.176-2.995-.491-4.43-.956-1.397-.44-2.744-1.032-4.027-1.762-1.246-.705-2.429-1.523-3.511-2.467-1.057-.931-2.026-1.976-2.869-3.109-.868-1.17-1.611-2.416-2.24-3.738-.629-1.347-1.12-2.756-1.473-4.204-.365-1.523-.579-3.083-.667-4.656-.101-1.636-.063-3.272.126-4.908.176-1.523.491-3.046.944-4.506.441-1.422,1.032-2.794,1.749-4.09.919-1.674,2.064-3.234,3.411-4.594,1.334-1.359,2.869-2.517,4.531-3.448,1.712-.969,3.549-1.699,5.449-2.165,2.026-.503,4.103-.73,6.192-.73,2.517,0,5.021.315,7.413,1.045,1.12.352,2.215.78,3.26,1.309,1.032.529,2.026,1.145,2.958,1.825,1.611,1.196,3.046,2.63,4.216,4.254,1.208,1.649,2.127,3.511,2.781,5.437h-10.018c-.617-1.108-1.41-2.127-2.341-2.983-.969-.881-2.102-1.598-3.323-2.102-1.321-.554-2.744-.868-4.178-.956-.667-.038-1.321-.038-1.976.013-.579.038-1.158.113-1.724.214-1.095.214-2.165.566-3.171,1.07-.982.491-1.9,1.133-2.731,1.875-.503.453-.969.956-1.397,1.498-.717.906-1.321,1.9-1.787,2.945-.491,1.108-.843,2.265-1.07,3.448-.239,1.284-.352,2.593-.352,3.901s.113,2.618.352,3.889c.227,1.183.579,2.353,1.07,3.448.466,1.057,1.07,2.051,1.787,2.958.428.529.894,1.032,1.397,1.498.831.742,1.749,1.384,2.731,1.875,1.007.503,2.077.843,3.171,1.057,1.221.239,2.454.315,3.7.239,1.435-.101,2.857-.403,4.178-.956.642-.264,1.259-.592,1.837-.969.529-.34,1.019-.717,1.485-1.133.931-.856,1.724-1.875,2.341-2.995Z"/>
      </g>
      <g>
        <path class="cls-10" d="M409.562,34.447c-.063-1.158-.227-2.316-.503-3.436-.277-1.082-.654-2.139-1.133-3.146-.478-.994-1.045-1.938-1.699-2.806-.642-.856-1.372-1.649-2.165-2.341-.805-.717-1.686-1.334-2.618-1.863-.944-.541-1.938-.994-2.958-1.334-1.045-.34-2.102-.579-3.184-.717-1.12-.138-2.265-.164-3.398-.101-1.095.063-2.19.227-3.247.516-1.045.264-2.064.642-3.033,1.12-.982.478-1.9,1.045-2.769,1.699-.843.654-1.624,1.384-2.328,2.19-.717.818-1.359,1.712-1.9,2.668-.554.969-1.007,1.976-1.359,3.046-.352,1.07-.592,2.19-.73,3.323-.151,1.196-.176,2.404-.101,3.612.063,1.158.227,2.316.516,3.436.277,1.095.667,2.14,1.158,3.146.478,1.007,1.07,1.951,1.737,2.844.654.856,1.384,1.649,2.177,2.353.818.705,1.699,1.334,2.63,1.863.944.541,1.938.994,2.958,1.334,1.045.34,2.102.579,3.184.717,1.12.138,2.265.164,3.398.101,1.095-.076,2.177-.239,3.247-.516,1.032-.264,2.051-.642,3.008-1.12.969-.478,1.9-1.045,2.756-1.699.831-.654,1.611-1.384,2.303-2.19.717-.831,1.347-1.737,1.888-2.693l-5.613-1.976c-.327.554-.705,1.082-1.133,1.573-.428.478-.894.919-1.41,1.309-.503.39-1.045.717-1.611.994-.29.126-.579.252-.868.365-.315.101-.617.201-.931.277s-.629.138-.944.189c-.34.05-.68.088-1.007.113-.68.038-1.347.038-2.014-.025-.654-.063-1.309-.176-1.938-.365-.315-.088-.629-.189-.931-.302-.29-.113-.579-.252-.856-.39-.277-.151-.554-.302-.831-.478-.264-.176-.516-.365-.755-.554-.252-.214-.491-.428-.717-.654s-.441-.453-.642-.705c-.415-.491-.78-1.032-1.095-1.611-.327-.579-.592-1.183-.805-1.825-.239-.68-.403-1.384-.516-2.089h26.656c.013-.088.013-.164.025-.239.151-1.196.176-2.416.101-3.612ZM382.68,33.73c.076-.705.201-1.397.39-2.077.176-.654.403-1.296.68-1.913.277-.592.604-1.158.994-1.699.365-.516.793-1.007,1.259-1.435.239-.227.478-.428.742-.629.239-.189.503-.365.768-.529.277-.164.554-.315.843-.453.277-.138.566-.264.868-.365.302-.113.617-.201.931-.29.315-.076.629-.138.944-.189.667-.113,1.347-.164,2.014-.151.68,0,1.347.05,2.001.176.642.101,1.259.277,1.863.503.579.227,1.145.516,1.686.856.264.164.516.352.755.541.252.201.503.415.73.642.453.453.868.944,1.246,1.472.365.541.692,1.108.956,1.712.138.302.264.617.365.931.214.617.39,1.246.503,1.888.063.34.113.68.151,1.007h-20.69Z"/>
        <path class="cls-10" d="M363.248,4.368v13.995c-2.404-1.787-5.437-2.404-7.853-2.63-2.429-.227-4.254-.05-6.268.453-1.988.529-4.166,1.384-5.978,3.058-1.825,1.661-3.285,4.141-4.266,6.519-.969,2.353-1.46,4.619-1.636,7.111-.201,2.504-.076,5.261.68,7.841.742,2.593,2.127,5.009,3.763,7.023,1.636,2.001,3.511,3.587,5.94,4.581,2.429,1.007,5.399,1.422,8.659.843,3.26-.592,6.809-2.19,8.545-4.254v3.801h6.318V4.368h-7.903ZM365.048,36.146c-.164,1.938-.667,3.989-1.712,5.789-1.045,1.812-2.643,3.373-4.732,4.166-2.077.818-4.657.843-6.658.264-2.001-.554-3.436-1.724-4.531-3.046-1.082-1.321-1.825-2.806-2.215-5.084-.378-2.278-.403-5.361.176-7.916.592-2.555,1.8-4.581,3.121-6.016,1.296-1.422,2.693-2.253,4.166-2.555,1.485-.315,3.046-.113,4.204.088,1.158.176,1.926.365,2.995,1.032,1.082.654,2.454,1.825,3.335,3.172.906,1.347,1.321,2.895,1.598,4.594.29,1.712.441,3.562.252,5.512Z"/>
        <path class="cls-10" d="M333.874,32.307c-.076-1.259-.264-2.517-.579-3.75-.302-1.17-.717-2.316-1.259-3.411-.529-1.082-1.17-2.114-1.9-3.058-.717-.931-1.523-1.787-2.416-2.555-.906-.768-1.888-1.447-2.932-2.026-1.045-.591-2.165-1.082-3.31-1.447-1.145-.378-2.341-.629-3.549-.78-1.259-.151-2.53-.189-3.788-.113-1.233.076-2.454.252-3.637.554-1.17.302-2.303.717-3.385,1.233-1.095.516-2.127,1.133-3.096,1.85-.944.705-1.825,1.498-2.605,2.379-.805.894-1.51,1.875-2.114,2.907-.617,1.045-1.133,2.152-1.523,3.31-.403,1.17-.667,2.391-.818,3.625-.164,1.309-.201,2.618-.113,3.927.076,1.271.252,2.53.579,3.75.302,1.183.742,2.328,1.284,3.423s1.196,2.127,1.951,3.083c.717.944,1.535,1.8,2.429,2.567.919.78,1.9,1.46,2.945,2.039,1.057.592,2.165,1.07,3.31,1.447,1.158.378,2.341.629,3.549.78,1.259.151,2.53.176,3.788.101,1.233-.063,2.454-.252,3.637-.554,1.158-.289,2.291-.705,3.373-1.221,1.082-.516,2.114-1.133,3.071-1.85.931-.705,1.8-1.51,2.58-2.391.793-.894,1.498-1.875,2.102-2.92.604-1.057,1.12-2.165,1.498-3.322.403-1.183.667-2.404.818-3.637.151-1.309.189-2.63.113-3.939ZM322.849,41.822c-1.863,2.064-4.342,3.096-7.438,3.096-3.134,0-5.638-1.019-7.501-3.071-1.863-2.051-2.781-4.782-2.781-8.218,0-3.461.919-6.217,2.781-8.243,1.863-2.026,4.367-3.046,7.501-3.046,3.096,0,5.575,1.032,7.438,3.071,1.863,2.051,2.794,4.795,2.794,8.218,0,3.398-.931,6.129-2.794,8.193Z"/>
        <path class="cls-10" d="M282.992,38.889h10.018c-.491,1.46-1.133,2.882-1.951,4.191-.768,1.271-1.699,2.442-2.756,3.499-1.12,1.12-2.379,2.114-3.738,2.932-1.485.919-3.096,1.636-4.757,2.152-1.762.541-3.599.843-5.449.969-1.724.113-3.448.088-5.16-.113-1.51-.176-2.995-.491-4.43-.956-1.397-.44-2.744-1.032-4.027-1.762-1.246-.705-2.429-1.523-3.511-2.467-1.057-.931-2.026-1.976-2.869-3.109-.868-1.17-1.611-2.416-2.24-3.738-.629-1.347-1.12-2.756-1.473-4.204-.365-1.523-.579-3.083-.667-4.656-.101-1.636-.063-3.272.126-4.908.176-1.523.491-3.046.944-4.506.441-1.422,1.032-2.794,1.749-4.09.919-1.674,2.064-3.234,3.411-4.594,1.334-1.359,2.869-2.517,4.531-3.448,1.712-.969,3.549-1.699,5.449-2.165,2.026-.503,4.103-.73,6.192-.73,2.517,0,5.021.315,7.413,1.045,1.12.352,2.215.78,3.26,1.309,1.032.529,2.026,1.145,2.958,1.825,1.611,1.196,3.046,2.63,4.216,4.254,1.208,1.649,2.127,3.511,2.781,5.437h-10.018c-.617-1.108-1.41-2.127-2.341-2.983-.969-.881-2.102-1.598-3.323-2.102-1.321-.554-2.744-.868-4.178-.956-.667-.038-1.321-.038-1.976.013-.579.038-1.158.113-1.724.214-1.095.214-2.165.566-3.171,1.07-.982.491-1.9,1.133-2.731,1.875-.503.453-.969.956-1.397,1.498-.717.906-1.321,1.9-1.787,2.945-.491,1.108-.843,2.265-1.07,3.448-.239,1.284-.352,2.593-.352,3.901s.113,2.618.352,3.889c.227,1.183.579,2.353,1.07,3.448.466,1.057,1.07,2.051,1.787,2.958.428.529.894,1.032,1.397,1.498.831.742,1.749,1.384,2.731,1.875,1.007.503,2.077.843,3.171,1.057,1.221.239,2.454.315,3.7.239,1.435-.101,2.857-.403,4.178-.956.642-.264,1.259-.592,1.837-.969.529-.34,1.019-.717,1.485-1.133.931-.856,1.724-1.875,2.341-2.995Z"/>
      </g>
      <g>
        <path class="cls-11" d="M409.562,34.447c-.063-1.158-.227-2.316-.503-3.436-.277-1.082-.654-2.139-1.133-3.146-.478-.994-1.045-1.938-1.699-2.806-.642-.856-1.372-1.649-2.165-2.341-.805-.717-1.686-1.334-2.618-1.863-.944-.541-1.938-.994-2.958-1.334-1.045-.34-2.102-.579-3.184-.717-1.12-.138-2.265-.164-3.398-.101-1.095.063-2.19.227-3.247.516-1.045.264-2.064.642-3.033,1.12-.982.478-1.9,1.045-2.769,1.699-.843.654-1.624,1.384-2.328,2.19-.717.818-1.359,1.712-1.9,2.668-.554.969-1.007,1.976-1.359,3.046-.352,1.07-.592,2.19-.73,3.323-.151,1.196-.176,2.404-.101,3.612.063,1.158.227,2.316.516,3.436.277,1.095.667,2.14,1.158,3.146.478,1.007,1.07,1.951,1.737,2.844.654.856,1.384,1.649,2.177,2.353.818.705,1.699,1.334,2.63,1.863.944.541,1.938.994,2.958,1.334,1.045.34,2.102.579,3.184.717,1.12.138,2.265.164,3.398.101,1.095-.076,2.177-.239,3.247-.516,1.032-.264,2.051-.642,3.008-1.12.969-.478,1.9-1.045,2.756-1.699.831-.654,1.611-1.384,2.303-2.19.717-.831,1.347-1.737,1.888-2.693l-5.613-1.976c-.327.554-.705,1.082-1.133,1.573-.428.478-.894.919-1.41,1.309-.503.39-1.045.717-1.611.994-.29.126-.579.252-.868.365-.315.101-.617.201-.931.277s-.629.138-.944.189c-.34.05-.68.088-1.007.113-.68.038-1.347.038-2.014-.025-.654-.063-1.309-.176-1.938-.365-.315-.088-.629-.189-.931-.302-.29-.113-.579-.252-.856-.39-.277-.151-.554-.302-.831-.478-.264-.176-.516-.365-.755-.554-.252-.214-.491-.428-.717-.654s-.441-.453-.642-.705c-.415-.491-.78-1.032-1.095-1.611-.327-.579-.592-1.183-.805-1.825-.239-.68-.403-1.384-.516-2.089h26.656c.013-.088.013-.164.025-.239.151-1.196.176-2.416.101-3.612ZM382.68,33.73c.076-.705.201-1.397.39-2.077.176-.654.403-1.296.68-1.913.277-.592.604-1.158.994-1.699.365-.516.793-1.007,1.259-1.435.239-.227.478-.428.742-.629.239-.189.503-.365.768-.529.277-.164.554-.315.843-.453.277-.138.566-.264.868-.365.302-.113.617-.201.931-.29.315-.076.629-.138.944-.189.667-.113,1.347-.164,2.014-.151.68,0,1.347.05,2.001.176.642.101,1.259.277,1.863.503.579.227,1.145.516,1.686.856.264.164.516.352.755.541.252.201.503.415.73.642.453.453.868.944,1.246,1.472.365.541.692,1.108.956,1.712.138.302.264.617.365.931.214.617.39,1.246.503,1.888.063.34.113.68.151,1.007h-20.69Z"/>
        <path class="cls-11" d="M363.248,4.368v13.995c-2.404-1.787-5.437-2.404-7.853-2.63-2.429-.227-4.254-.05-6.268.453-1.988.529-4.166,1.384-5.978,3.058-1.825,1.661-3.285,4.141-4.266,6.519-.969,2.353-1.46,4.619-1.636,7.111-.201,2.504-.076,5.261.68,7.841.742,2.593,2.127,5.009,3.763,7.023,1.636,2.001,3.511,3.587,5.94,4.581,2.429,1.007,5.399,1.422,8.659.843,3.26-.592,6.809-2.19,8.545-4.254v3.801h6.318V4.368h-7.903ZM365.048,36.146c-.164,1.938-.667,3.989-1.712,5.789-1.045,1.812-2.643,3.373-4.732,4.166-2.077.818-4.657.843-6.658.264-2.001-.554-3.436-1.724-4.531-3.046-1.082-1.321-1.825-2.806-2.215-5.084-.378-2.278-.403-5.361.176-7.916.592-2.555,1.8-4.581,3.121-6.016,1.296-1.422,2.693-2.253,4.166-2.555,1.485-.315,3.046-.113,4.204.088,1.158.176,1.926.365,2.995,1.032,1.082.654,2.454,1.825,3.335,3.172.906,1.347,1.321,2.895,1.598,4.594.29,1.712.441,3.562.252,5.512Z"/>
        <path class="cls-11" d="M333.874,32.307c-.076-1.259-.264-2.517-.579-3.75-.302-1.17-.717-2.316-1.259-3.411-.529-1.082-1.17-2.114-1.9-3.058-.717-.931-1.523-1.787-2.416-2.555-.906-.768-1.888-1.447-2.932-2.026-1.045-.591-2.165-1.082-3.31-1.447-1.145-.378-2.341-.629-3.549-.78-1.259-.151-2.53-.189-3.788-.113-1.233.076-2.454.252-3.637.554-1.17.302-2.303.717-3.385,1.233-1.095.516-2.127,1.133-3.096,1.85-.944.705-1.825,1.498-2.605,2.379-.805.894-1.51,1.875-2.114,2.907-.617,1.045-1.133,2.152-1.523,3.31-.403,1.17-.667,2.391-.818,3.625-.164,1.309-.201,2.618-.113,3.927.076,1.271.252,2.53.579,3.75.302,1.183.742,2.328,1.284,3.423s1.196,2.127,1.951,3.083c.717.944,1.535,1.8,2.429,2.567.919.78,1.9,1.46,2.945,2.039,1.057.592,2.165,1.07,3.31,1.447,1.158.378,2.341.629,3.549.78,1.259.151,2.53.176,3.788.101,1.233-.063,2.454-.252,3.637-.554,1.158-.289,2.291-.705,3.373-1.221,1.082-.516,2.114-1.133,3.071-1.85.931-.705,1.8-1.51,2.58-2.391.793-.894,1.498-1.875,2.102-2.92.604-1.057,1.12-2.165,1.498-3.322.403-1.183.667-2.404.818-3.637.151-1.309.189-2.63.113-3.939ZM322.849,41.822c-1.863,2.064-4.342,3.096-7.438,3.096-3.134,0-5.638-1.019-7.501-3.071-1.863-2.051-2.781-4.782-2.781-8.218,0-3.461.919-6.217,2.781-8.243,1.863-2.026,4.367-3.046,7.501-3.046,3.096,0,5.575,1.032,7.438,3.071,1.863,2.051,2.794,4.795,2.794,8.218,0,3.398-.931,6.129-2.794,8.193Z"/>
        <path class="cls-11" d="M282.992,38.889h10.018c-.491,1.46-1.133,2.882-1.951,4.191-.768,1.271-1.699,2.442-2.756,3.499-1.12,1.12-2.379,2.114-3.738,2.932-1.485.919-3.096,1.636-4.757,2.152-1.762.541-3.599.843-5.449.969-1.724.113-3.448.088-5.16-.113-1.51-.176-2.995-.491-4.43-.956-1.397-.44-2.744-1.032-4.027-1.762-1.246-.705-2.429-1.523-3.511-2.467-1.057-.931-2.026-1.976-2.869-3.109-.868-1.17-1.611-2.416-2.24-3.738-.629-1.347-1.12-2.756-1.473-4.204-.365-1.523-.579-3.083-.667-4.656-.101-1.636-.063-3.272.126-4.908.176-1.523.491-3.046.944-4.506.441-1.422,1.032-2.794,1.749-4.09.919-1.674,2.064-3.234,3.411-4.594,1.334-1.359,2.869-2.517,4.531-3.448,1.712-.969,3.549-1.699,5.449-2.165,2.026-.503,4.103-.73,6.192-.73,2.517,0,5.021.315,7.413,1.045,1.12.352,2.215.78,3.26,1.309,1.032.529,2.026,1.145,2.958,1.825,1.611,1.196,3.046,2.63,4.216,4.254,1.208,1.649,2.127,3.511,2.781,5.437h-10.018c-.617-1.108-1.41-2.127-2.341-2.983-.969-.881-2.102-1.598-3.323-2.102-1.321-.554-2.744-.868-4.178-.956-.667-.038-1.321-.038-1.976.013-.579.038-1.158.113-1.724.214-1.095.214-2.165.566-3.171,1.07-.982.491-1.9,1.133-2.731,1.875-.503.453-.969.956-1.397,1.498-.717.906-1.321,1.9-1.787,2.945-.491,1.108-.843,2.265-1.07,3.448-.239,1.284-.352,2.593-.352,3.901s.113,2.618.352,3.889c.227,1.183.579,2.353,1.07,3.448.466,1.057,1.07,2.051,1.787,2.958.428.529.894,1.032,1.397,1.498.831.742,1.749,1.384,2.731,1.875,1.007.503,2.077.843,3.171,1.057,1.221.239,2.454.315,3.7.239,1.435-.101,2.857-.403,4.178-.956.642-.264,1.259-.592,1.837-.969.529-.34,1.019-.717,1.485-1.133.931-.856,1.724-1.875,2.341-2.995Z"/>
      </g>
      <g>
        <path class="cls-5" d="M409.562,34.447c-.063-1.158-.227-2.316-.503-3.436-.277-1.082-.654-2.139-1.133-3.146-.478-.994-1.045-1.938-1.699-2.806-.642-.856-1.372-1.649-2.165-2.341-.805-.717-1.686-1.334-2.618-1.863-.944-.541-1.938-.994-2.958-1.334-1.045-.34-2.102-.579-3.184-.717-1.12-.138-2.265-.164-3.398-.101-1.095.063-2.19.227-3.247.516-1.045.264-2.064.642-3.033,1.12-.982.478-1.9,1.045-2.769,1.699-.843.654-1.624,1.384-2.328,2.19-.717.818-1.359,1.712-1.9,2.668-.554.969-1.007,1.976-1.359,3.046-.352,1.07-.592,2.19-.73,3.323-.151,1.196-.176,2.404-.101,3.612.063,1.158.227,2.316.516,3.436.277,1.095.667,2.14,1.158,3.146.478,1.007,1.07,1.951,1.737,2.844.654.856,1.384,1.649,2.177,2.353.818.705,1.699,1.334,2.63,1.863.944.541,1.938.994,2.958,1.334,1.045.34,2.102.579,3.184.717,1.12.138,2.265.164,3.398.101,1.095-.076,2.177-.239,3.247-.516,1.032-.264,2.051-.642,3.008-1.12.969-.478,1.9-1.045,2.756-1.699.831-.654,1.611-1.384,2.303-2.19.717-.831,1.347-1.737,1.888-2.693l-5.613-1.976c-.327.554-.705,1.082-1.133,1.573-.428.478-.894.919-1.41,1.309-.503.39-1.045.717-1.611.994-.29.126-.579.252-.868.365-.315.101-.617.201-.931.277s-.629.138-.944.189c-.34.05-.68.088-1.007.113-.68.038-1.347.038-2.014-.025-.654-.063-1.309-.176-1.938-.365-.315-.088-.629-.189-.931-.302-.29-.113-.579-.252-.856-.39-.277-.151-.554-.302-.831-.478-.264-.176-.516-.365-.755-.554-.252-.214-.491-.428-.717-.654s-.441-.453-.642-.705c-.415-.491-.78-1.032-1.095-1.611-.327-.579-.592-1.183-.805-1.825-.239-.68-.403-1.384-.516-2.089h26.656c.013-.088.013-.164.025-.239.151-1.196.176-2.416.101-3.612ZM382.68,33.73c.076-.705.201-1.397.39-2.077.176-.654.403-1.296.68-1.913.277-.592.604-1.158.994-1.699.365-.516.793-1.007,1.259-1.435.239-.227.478-.428.742-.629.239-.189.503-.365.768-.529.277-.164.554-.315.843-.453.277-.138.566-.264.868-.365.302-.113.617-.201.931-.29.315-.076.629-.138.944-.189.667-.113,1.347-.164,2.014-.151.68,0,1.347.05,2.001.176.642.101,1.259.277,1.863.503.579.227,1.145.516,1.686.856.264.164.516.352.755.541.252.201.503.415.73.642.453.453.868.944,1.246,1.472.365.541.692,1.108.956,1.712.138.302.264.617.365.931.214.617.39,1.246.503,1.888.063.34.113.68.151,1.007h-20.69Z"/>
        <path class="cls-5" d="M363.248,4.368v13.995c-2.404-1.787-5.437-2.404-7.853-2.63-2.429-.227-4.254-.05-6.268.453-1.988.529-4.166,1.384-5.978,3.058-1.825,1.661-3.285,4.141-4.266,6.519-.969,2.353-1.46,4.619-1.636,7.111-.201,2.504-.076,5.261.68,7.841.742,2.593,2.127,5.009,3.763,7.023,1.636,2.001,3.511,3.587,5.94,4.581,2.429,1.007,5.399,1.422,8.659.843,3.26-.592,6.809-2.19,8.545-4.254v3.801h6.318V4.368h-7.903ZM365.048,36.146c-.164,1.938-.667,3.989-1.712,5.789-1.045,1.812-2.643,3.373-4.732,4.166-2.077.818-4.657.843-6.658.264-2.001-.554-3.436-1.724-4.531-3.046-1.082-1.321-1.825-2.806-2.215-5.084-.378-2.278-.403-5.361.176-7.916.592-2.555,1.8-4.581,3.121-6.016,1.296-1.422,2.693-2.253,4.166-2.555,1.485-.315,3.046-.113,4.204.088,1.158.176,1.926.365,2.995,1.032,1.082.654,2.454,1.825,3.335,3.172.906,1.347,1.321,2.895,1.598,4.594.29,1.712.441,3.562.252,5.512Z"/>
        <path class="cls-5" d="M333.874,32.307c-.076-1.259-.264-2.517-.579-3.75-.302-1.17-.717-2.316-1.259-3.411-.529-1.082-1.17-2.114-1.9-3.058-.717-.931-1.523-1.787-2.416-2.555-.906-.768-1.888-1.447-2.932-2.026-1.045-.591-2.165-1.082-3.31-1.447-1.145-.378-2.341-.629-3.549-.78-1.259-.151-2.53-.189-3.788-.113-1.233.076-2.454.252-3.637.554-1.17.302-2.303.717-3.385,1.233-1.095.516-2.127,1.133-3.096,1.85-.944.705-1.825,1.498-2.605,2.379-.805.894-1.51,1.875-2.114,2.907-.617,1.045-1.133,2.152-1.523,3.31-.403,1.17-.667,2.391-.818,3.625-.164,1.309-.201,2.618-.113,3.927.076,1.271.252,2.53.579,3.75.302,1.183.742,2.328,1.284,3.423s1.196,2.127,1.951,3.083c.717.944,1.535,1.8,2.429,2.567.919.78,1.9,1.46,2.945,2.039,1.057.592,2.165,1.07,3.31,1.447,1.158.378,2.341.629,3.549.78,1.259.151,2.53.176,3.788.101,1.233-.063,2.454-.252,3.637-.554,1.158-.289,2.291-.705,3.373-1.221,1.082-.516,2.114-1.133,3.071-1.85.931-.705,1.8-1.51,2.58-2.391.793-.894,1.498-1.875,2.102-2.92.604-1.057,1.12-2.165,1.498-3.322.403-1.183.667-2.404.818-3.637.151-1.309.189-2.63.113-3.939ZM322.849,41.822c-1.863,2.064-4.342,3.096-7.438,3.096-3.134,0-5.638-1.019-7.501-3.071-1.863-2.051-2.781-4.782-2.781-8.218,0-3.461.919-6.217,2.781-8.243,1.863-2.026,4.367-3.046,7.501-3.046,3.096,0,5.575,1.032,7.438,3.071,1.863,2.051,2.794,4.795,2.794,8.218,0,3.398-.931,6.129-2.794,8.193Z"/>
        <path class="cls-5" d="M282.992,38.889h10.018c-.491,1.46-1.133,2.882-1.951,4.191-.768,1.271-1.699,2.442-2.756,3.499-1.12,1.12-2.379,2.114-3.738,2.932-1.485.919-3.096,1.636-4.757,2.152-1.762.541-3.599.843-5.449.969-1.724.113-3.448.088-5.16-.113-1.51-.176-2.995-.491-4.43-.956-1.397-.44-2.744-1.032-4.027-1.762-1.246-.705-2.429-1.523-3.511-2.467-1.057-.931-2.026-1.976-2.869-3.109-.868-1.17-1.611-2.416-2.24-3.738-.629-1.347-1.12-2.756-1.473-4.204-.365-1.523-.579-3.083-.667-4.656-.101-1.636-.063-3.272.126-4.908.176-1.523.491-3.046.944-4.506.441-1.422,1.032-2.794,1.749-4.09.919-1.674,2.064-3.234,3.411-4.594,1.334-1.359,2.869-2.517,4.531-3.448,1.712-.969,3.549-1.699,5.449-2.165,2.026-.503,4.103-.73,6.192-.73,2.517,0,5.021.315,7.413,1.045,1.12.352,2.215.78,3.26,1.309,1.032.529,2.026,1.145,2.958,1.825,1.611,1.196,3.046,2.63,4.216,4.254,1.208,1.649,2.127,3.511,2.781,5.437h-10.018c-.617-1.108-1.41-2.127-2.341-2.983-.969-.881-2.102-1.598-3.323-2.102-1.321-.554-2.744-.868-4.178-.956-.667-.038-1.321-.038-1.976.013-.579.038-1.158.113-1.724.214-1.095.214-2.165.566-3.171,1.07-.982.491-1.9,1.133-2.731,1.875-.503.453-.969.956-1.397,1.498-.717.906-1.321,1.9-1.787,2.945-.491,1.108-.843,2.265-1.07,3.448-.239,1.284-.352,2.593-.352,3.901s.113,2.618.352,3.889c.227,1.183.579,2.353,1.07,3.448.466,1.057,1.07,2.051,1.787,2.958.428.529.894,1.032,1.397,1.498.831.742,1.749,1.384,2.731,1.875,1.007.503,2.077.843,3.171,1.057,1.221.239,2.454.315,3.7.239,1.435-.101,2.857-.403,4.178-.956.642-.264,1.259-.592,1.837-.969.529-.34,1.019-.717,1.485-1.133.931-.856,1.724-1.875,2.341-2.995Z"/>
      </g>
    </g>
  </g>
</svg>