<svg xmlns="http://www.w3.org/2000/svg" width="20" height="20" viewBox="0 0 1518 1024">
    <path fill="#855cd6" fill-rule="evenodd" d="M808.289103 1005.885793H323.336828v-0.600276C143.006897 994.445241 0 839.326897 0 649.639724c0-190.887724 144.772414-346.747586 326.69131-355.822345C403.244138 120.408276 572.027586 0 767.894069 0c235.52 0 431.845517 174.11531 475.771586 405.009655 136.192 19.738483 241.204966 146.114207 241.204966 299.078621 0 166.664828-124.645517 301.797517-278.422069 301.797517H808.289103zM608.750345 386.048a139.016828 139.016828 0 0 0 99.645793 133.15531v483.716414h77.965241V519.20331a138.875586 138.875586 0 0 0 99.610483-133.12 138.804966 138.804966 0 0 0-138.593103-138.628413 138.804966 138.804966 0 0 0-138.628414 138.593103z m138.628414 60.839724a60.733793 60.733793 0 0 1-60.663173-60.663172c0-33.368276 27.294897-60.663172 60.663173-60.663173s60.627862 27.294897 60.627862 60.663173-27.259586 60.663172-60.627862 60.663172z m-258.224552 44.879448a93.572414 93.572414 0 1 0-31.955862 181.495173v329.657379h77.965241v-336.189793a93.501793 93.501793 0 0 0-46.009379-174.962759zM1026.471724 1002.919724v-331.528827a93.748966 93.748966 0 0 0 56.920276-86.051311 93.643034 93.643034 0 0 0-93.572414-93.572414 93.643034 93.643034 0 0 0-41.313103 177.611035v333.541517h77.965241z"/>
</svg>