<svg xmlns="http://www.w3.org/2000/svg" width="20" height="20" viewBox="0 0 1024 1024">
    <path fill="#855cd6" fill-rule="evenodd" d="M768 128a128 128 0 0 1 128 128v512a128 128 0 0 1-128 128H256a128 128 0 0 1-128-128V256a128 128 0 0 1 128-128h512z m0 64H256a64 64 0 0 0-63.701333 57.856L192 256v512a64 64 0 0 0 57.856 63.701333L256 832h512a64 64 0 0 0 63.701333-57.856L832 768V256a64 64 0 0 0-57.856-63.701333L768 192z"/>
    <path fill="#855cd6" fill-rule="evenodd" d="M170.666667 341.333333h682.666666v64H170.666667z"/>
    <path fill="#855cd6" fill-rule="evenodd" d="M288 256m-42.666667 0a42.666667 42.666667 0 1 0 85.333334 0 42.666667 42.666667 0 1 0-85.333334 0Z"/>
    <path fill="#855cd6" fill-rule="evenodd" d="M394.666667 256m-42.666667 0a42.666667 42.666667 0 1 0 85.333333 0 42.666667 42.666667 0 1 0-85.333333 0Z"/>
    <path fill="#855cd6" fill-rule="evenodd" d="M501.333333 256m-42.666666 0a42.666667 42.666667 0 1 0 85.333333 0 42.666667 42.666667 0 1 0-85.333333 0Z"/>
</svg>