<svg xmlns="http://www.w3.org/2000/svg" width="20" height="20" viewBox="0 0 185.714 185.713">
  <path fill="#6f6c6c" d="M89.714,0c6.146.005,11.601,3.94,13.543,9.771l6.257,18.8h47.629c15.78,0,28.571,12.792,28.571,28.571v100c0,15.78-12.792,28.571-28.571,28.571H28.571c-15.779.001-28.571-12.791-28.571-28.57V28.571C0,12.792,12.792,0,28.571,0h0s61.143,0,61.143,0ZM89.714,14.286H28.571c-7.242,0-13.338,5.422-14.186,12.614l-.1,1.671v128.571c0,7.243,5.422,13.338,12.614,14.186l1.671.1h128.571c7.243,0,13.338-5.422,14.186-12.614l.1-1.671V57.143c0-7.242-5.422-13.338-12.614-14.186l-1.671-.1h-57.929l-9.514-28.571h.015Z"/>
  <rect fill="#6f6c6c" x="61.553" y="96.366" width="62.609" height="12.769" rx="6.384" ry="6.384"/>
  <rect fill="#6f6c6c" x="86.473" y="71.447" width="12.769" height="62.609" rx="6.384" ry="6.384"/>
</svg>