<svg xmlns="http://www.w3.org/2000/svg" width="20" height="20" viewBox="0 0 185.714 185.714">
  <path fill="#61666d" d="M89.714,0c6.146.005,11.601,3.94,13.543,9.771l6.257,18.8h47.629c15.78,0,28.571,12.792,28.571,28.571v100c0,15.78-12.792,28.571-28.571,28.571H28.571C12.792,185.714,0,172.922,0,157.143V28.571C0,12.792,12.792,0,28.571,0h0s61.143,0,61.143,0ZM89.714,14.286H28.571c-7.242,0-13.338,5.422-14.186,12.614l-.1,1.671v128.571c0,7.243,5.422,13.338,12.614,14.186l1.671.1h128.571c7.243,0,13.338-5.422,14.186-12.614l.1-1.671V57.143c0-7.242-5.422-13.338-12.614-14.186l-1.671-.1h-57.929l-9.514-28.571h.014Z"/>
  <path fill="#61666d" d="M96.914,141.586l1-.814,28.571-28.571c2.796-2.783,2.806-7.306.023-10.101-2.443-2.454-6.293-2.802-9.137-.827l-1,.814-16.371,16.386v-39.9c.002-3.945-3.195-7.144-7.14-7.146-3.945-.002-7.144,3.195-7.146,7.14v39.906l-16.371-16.386c-2.443-2.437-6.278-2.78-9.114-.814l-1,.814c-2.437,2.443-2.78,6.278-.814,9.114l.814,1,28.571,28.571c2.443,2.437,6.278,2.78,9.114.814Z"/>
</svg>