<svg xmlns="http://www.w3.org/2000/svg" width="50" height="50" viewBox="0 0 191.33 138.78">
    <path fill="#855cd6" fill-rule="evenodd" d="M136.69,106.22c2.83,0,5.13,2.3,5.13,5.13c0,2.83-2.3,5.13-5.13,5.13H54.64c-2.83,0-5.13-2.3-5.13-5.13
        c0-2.83,2.3-5.13,5.13-5.13H136.69z M95.67,13.95c2.83,0,5.13,2.3,5.13,5.13v61.94l24.56-24.56c1.91-1.91,4.98-2.01,7.01-0.22
        c2.03,1.79,2.32,4.84,0.67,6.98l-0.43,0.48L99.27,97.05c-1.83,1.83-4.73,2.01-6.77,0.43l-0.48-0.43l-33.3-33.25
        c-1.92-1.91-2.02-4.98-0.23-7.02c1.79-2.03,4.85-2.33,6.99-0.67l0.48,0.43l24.58,24.53v-62c0-1.36,0.54-2.66,1.5-3.63
        C93,14.49,94.31,13.95,95.67,13.95L95.67,13.95z M95.67,13.95"/>
    <path fill="#855cd6" fill-rule="evenodd" d="M173.97,0H17.36C7.81,0,0,7.81,0,17.36v104.07c0,9.55,7.81,17.36,17.36,17.36h156.61
        c9.55,0,17.36-7.81,17.36-17.36V17.36C191.33,7.81,183.52,0,173.97,0z M184.39,118.84c0,6.63-5.43,12.06-12.06,12.06H18.99
        c-6.63,0-12.06-5.43-12.06-12.06V18.97c0-6.63,5.43-12.06,12.06-12.06h153.34c6.63,0,12.06,5.43,12.06,12.06V118.84z"/>
</svg>